<svg width="352" height="350" viewBox="0 0 352 350" fill="none" xmlns="http://www.w3.org/2000/svg">
<path d="M34 211.5C-30.5 322.5 56.0001 425.5 267.5 209" stroke="#DBC66E" stroke-width="26" stroke-linecap="round"/>
<path d="M137.327 33.9241C26.3266 -30.576 -76.6734 55.9241 139.827 267.424" stroke="#DBC66E" stroke-width="26" stroke-linecap="round"/>
<path d="M313.5 137.327C378 26.3267 291.5 -76.6733 80 139.827" stroke="#DBC66E" stroke-width="26" stroke-linecap="round"/>
<path d="M214.5 315.5C325.5 380 428.5 293.5 212 82" stroke="#DBC66E" stroke-width="26" stroke-linecap="round"/>
<path d="M135.5 175.999C163 189 165 184.5 174 220C186 184.5 183 191 212.5 175.999C182 169 186 172 174 134C161.5 174 166 166.5 135.5 175.999Z" fill="#DBC66E" stroke="#DBC66E" stroke-width="11" stroke-linejoin="round"/>
</svg>
